<?xml version="1.0" encoding="UTF-8" standalone="no"?>
<!DOCTYPE svg PUBLIC "-//W3C//DTD SVG 1.1//EN" "http://www.w3.org/Graphics/SVG/1.1/DTD/svg11.dtd">

<!-- Created with Vectornator (http://vectornator.io/) -->
<svg height="100%" stroke-miterlimit="10" style="fill-rule:nonzero;clip-rule:evenodd;stroke-linecap:round;stroke-linejoin:round;" version="1.1" viewBox="0 0 1024 1024" width="100%" xml:space="preserve" xmlns="http://www.w3.org/2000/svg" xmlns:vectornator="http://vectornator.io" xmlns:xlink="http://www.w3.org/1999/xlink">
<metadata>
<vectornator:setting key="IsTimeLapseWatermarkDisabled" value="false"/>
<vectornator:setting key="UndoHistoryDisabled" value="true"/>
<vectornator:setting key="VNDimensionsVisible" value="true"/>
<vectornator:setting key="VNSnapToGuides" value="true"/>
<vectornator:setting key="WDCMYKEnabledKey" value="false"/>
<vectornator:setting key="WDDisplayWhiteBackground" value="false"/>
<vectornator:setting key="WDDynamicGuides" value="false"/>
<vectornator:setting key="WDGuidesVisible" value="true"/>
<vectornator:setting key="WDIsolateActiveLayer" value="false"/>
<vectornator:setting key="WDOutlineMode" value="false"/>
<vectornator:setting key="WDRulersVisible" value="true"/>
<vectornator:setting key="WDSnapToEdges" value="false"/>
<vectornator:setting key="WDSnapToGrid" value="false"/>
<vectornator:setting key="WDSnapToPoints" value="false"/>
<vectornator:setting key="WDUnits" value="Pixels"/>
</metadata>
<defs/>
<clipPath id="ArtboardFrame">
<rect height="1024" width="1024" x="0" y="0"/>
</clipPath>
<g clip-path="url(#ArtboardFrame)" id="Layer-1" vectornator:layerName="Layer 1">
<path d="M158.584 267.758C147.993 269.926 140.954 275.396 131.907 280.813C112.978 292.147 93.7686 314.925 86.8888 334.573C83.363 344.642 79.2368 361.462 81.8868 372.204C82.9702 376.595 87.3633 382.561 93.5581 381.42C97.111 380.765 99.7718 377.973 102.728 376.044C106.448 373.617 109.935 370.902 113.566 368.364C117.994 365.27 122.394 362.14 126.905 359.148C135.777 353.263 144.838 349.424 154.416 344.556C166.884 338.219 176.814 329.862 190.263 325.357" fill="none" fill-rule="evenodd" opacity="1" stroke="none"/>
<path d="M146.079 380.652C143.3 380.652 137.742 383.212 137.742 380.652C137.742 376.846 143.158 374.895 146.079 372.204C156.381 362.714 167.648 355.035 180.259 348.396C194.215 341.05 209.486 336.75 224.444 331.501C239.131 326.346 252.965 322.308 268.628 319.981C280.179 318.264 299.219 315.286 308.644 324.589C318.037 333.86 296.238 345.098 289.47 349.164C285.717 351.419 281.527 353.019 277.798 355.308C271.831 358.973 266.441 363.429 260.291 366.828C234.835 380.899 204.005 396.481 187.762 420.587C185.395 424.101 184.081 428.154 182.76 432.107C181.847 434.843 180.945 437.696 181.093 440.555C181.405 446.592 184.504 450.802 190.263 453.611C203.357 459.997 219.701 449.691 231.947 445.931" fill="none" fill-rule="evenodd" opacity="1" stroke="none"/>
<path d="M71.2381 183.802" fill="#489bd0" fill-rule="evenodd" opacity="1" stroke="#489bd0" stroke-linecap="round" stroke-linejoin="round" stroke-width="35.0241"/>
<path d="M747.817 1674.3" fill="#489bd0" fill-rule="evenodd" opacity="1" stroke="#489bd0" stroke-linecap="round" stroke-linejoin="round" stroke-width="35.0241"/>
<path d="M198.658 46.9897" fill="#489bd0" fill-rule="evenodd" opacity="1" stroke="#489bd0" stroke-linecap="round" stroke-linejoin="round" stroke-width="35.0241"/>
<path d="M903.958 1853.64" fill="#489bd0" fill-rule="evenodd" opacity="1" stroke="#489bd0" stroke-linecap="round" stroke-linejoin="round" stroke-width="16.3428"/>
<path d="M41.0703 235.314C355.466 423.969 202.563 515.254 269.565 681.089C342.435 861.445 774.66 763.245 1010.03 653.703C729.992 518.297 828.245 383.208 714.53 242.921C600.815 102.633 453.392 64.9152 41.0703 235.314Z" fill="#0b2d43" fill-rule="evenodd" opacity="1" stroke="#0b2d43" stroke-linecap="round" stroke-linejoin="round" stroke-width="20"/>
<path d="M698.199 744.967C698.199 744.967 685.317 854.001 788.617 901.928C702.263 912.69 661.6 941.595 661.6 941.595" fill="none" fill-rule="evenodd" opacity="1" stroke="#0b2d43" stroke-linecap="round" stroke-linejoin="round" stroke-width="26.0958"/>
<path d="M448.591 750.892C448.591 750.892 425.357 863.851 417.239 939.123C382.568 933.054 246.634 901.035 266.116 912.039" fill="none" fill-rule="evenodd" opacity="1" stroke="#0b2d43" stroke-linecap="round" stroke-linejoin="round" stroke-width="27.4827"/>
</g>
</svg>
